<svg width="1920" height="1080" viewBox="0 0 1920 1080" xmlns="http://www.w3.org/2000/svg"><rect width="1920" height="1080" fill="#f5f5f5"/><path d="M680,53.999999999999915C652.835655039928,146.45717463478383,520.0253133645939,219.14343586619515,482.1679160737014,304.8715239043517C444.3105187828089,390.59961194250826,501.01432952210087,503.83439209254254,452.85561625464516,568.3685282289391C404.69690298718945,632.9026643653357,280.79171275370254,676.6250386404323,193.21563646896732,692.076340722731C105.6395601842321,707.5276428050296,22.077700666835895,715.2559865363833,-72.60084145376617,661.076340722731C-167.27938357436824,606.8966949090786,-307.1057960138125,447.2823656267757,-374.8556162546451,366.998465840817C-442.6054364954777,286.7145660548583,-463.22608523138786,233.53935298044843,-479.09976289876175,179.37294200697895C-494.97344056613565,125.20653103350946,-460.36557806488594,119.54074431855514,-470.09768225888854,42.00000000000004C-479.82978645289114,-35.540744318555056,-546.3660657301513,-199.9154821266983,-537.4923880627774,-285.87152390435165C-528.6187103954036,-371.827565682005,-490.4040758616894,-431.1812424618429,-416.85561625464527,-473.73625066592C-343.3071566476011,-516.2912588699971,-182.22042304891136,-530.6826496349017,-96.20163042051234,-541.2015731288144C-10.182837792113332,-551.7204966227271,32.6394927758255,-541.5940120398782,99.25713951574879,-536.8497916293958C165.87478625567206,-532.1055712189134,212.52144229929672,-560.5659619534275,303.5042500190274,-512.7362506659202C394.48705773875804,-464.9065393784129,582.4046941706374,-344.32756568200523,645.1539858341329,-249.87152390435187C707.9032774976283,-155.41548212669852,707.164344960072,-38.45717463478401,680,53.999999999999915C652.835655039928,146.45717463478383,520.0253133645939,219.14343586619515,482.1679160737014,304.8715239043517" fill="#e9522e"/></svg>